<?xml version="1.0" encoding="utf-8"?>
<!-- Generator: Adobe Illustrator 25.0.1, SVG Export Plug-In . SVG Version: 6.00 Build 0)  -->
<svg version="1.1" id="Слой_1" xmlns="http://www.w3.org/2000/svg" xmlns:xlink="http://www.w3.org/1999/xlink" x="0px" y="0px"
	 viewBox="0 0 209 54" style="enable-background:new 0 0 209 54;" xml:space="preserve">
<style type="text/css">
	.st0{fill:#FFFFFF;}
	.st1{font-family:'Inter-Bold';}
	.st2{font-size:29.9957px;}
	.st3{fill:#3846F9;}
	.st4{fill:#39B3F7;}
</style>
<text id="Moshify" transform="matrix(1 0 0 1 71.4658 35.4371)" class="st0 st1 st2">CLOUD</text>
<g id="layer1" transform="translate(-362.5464,-406.21469)">
	<path id="path10000" class="st3" d="M399.3,419.5c-3.9,0-7.7,1.6-10.4,4.3c-1.7,1.7-3,3.9-3.7,6.2c-1.7,0.3-3.3,1.1-4.5,2.4
		c-1.6,1.6-2.5,3.8-2.5,6.1c0,2.2,0.9,4.5,2.5,6.1c1.6,1.6,3.8,2.5,6.1,2.5h38.4c1.4,0,2.9-0.6,3.9-1.6c1-1,1.6-2.4,1.6-3.9
		s-0.6-2.9-1.6-3.9c-1-1-2.4-1.6-3.8-1.6c-0.3-2.6-1.5-5.1-3.3-6.9c-2.1-2.1-5.1-3.4-8.1-3.4c-0.7,0-1.5,0.1-2.2,0.2
		c-0.5-0.8-1.1-1.5-1.8-2.2C407,421,403.1,419.5,399.3,419.5L399.3,419.5z"/>
</g>
<g id="layer1_1_" transform="translate(-362.5464,-406.21469)">
	<path id="path10000_1_" class="st4" d="M402.5,425.2c-2.8,0-5.5,1.1-7.5,3.1c-1.2,1.2-2.1,2.8-2.6,4.4c-1.2,0.2-2.4,0.8-3.2,1.7
		c-1.1,1.1-1.8,2.7-1.8,4.3c0,1.6,0.7,3.2,1.8,4.3c1.1,1.1,2.7,1.8,4.3,1.8H421c1,0,2-0.4,2.8-1.1c0.7-0.7,1.1-1.7,1.1-2.8
		s-0.4-2-1.1-2.8c-0.7-0.7-1.7-1.1-2.8-1.1c-0.2-1.8-1-3.6-2.4-4.9c-1.5-1.5-3.7-2.4-5.8-2.4c-0.5,0-1,0.1-1.6,0.2
		c-0.4-0.6-0.8-1.1-1.3-1.6C408,426.3,405.3,425.2,402.5,425.2L402.5,425.2z"/>
</g>
</svg>
